<svg xmlns="http://www.w3.org/2000/svg" viewBox="0 0 100 100" preserveAspectRatio="xMidYMid" width="200" height="200" style="shape-rendering: auto; display: block; background: rgb(255, 255, 255);" xmlns:xlink="http://www.w3.org/1999/xlink"><g><g transform="rotate(0 50 50)">
  <rect fill="#7971fe" height="12" width="4" ry="2.2800000000000002" rx="2" y="24" x="48">
    <animate repeatCount="indefinite" begin="-1.238738738738739s" dur="1.3513513513513513s" keyTimes="0;1" values="1;0" attributeName="opacity"></animate>
  </rect>
</g><g transform="rotate(30 50 50)">
  <rect fill="#7971fe" height="12" width="4" ry="2.2800000000000002" rx="2" y="24" x="48">
    <animate repeatCount="indefinite" begin="-1.1261261261261262s" dur="1.3513513513513513s" keyTimes="0;1" values="1;0" attributeName="opacity"></animate>
  </rect>
</g><g transform="rotate(60 50 50)">
  <rect fill="#7971fe" height="12" width="4" ry="2.2800000000000002" rx="2" y="24" x="48">
    <animate repeatCount="indefinite" begin="-1.0135135135135136s" dur="1.3513513513513513s" keyTimes="0;1" values="1;0" attributeName="opacity"></animate>
  </rect>
</g><g transform="rotate(90 50 50)">
  <rect fill="#7971fe" height="12" width="4" ry="2.2800000000000002" rx="2" y="24" x="48">
    <animate repeatCount="indefinite" begin="-0.900900900900901s" dur="1.3513513513513513s" keyTimes="0;1" values="1;0" attributeName="opacity"></animate>
  </rect>
</g><g transform="rotate(120 50 50)">
  <rect fill="#7971fe" height="12" width="4" ry="2.2800000000000002" rx="2" y="24" x="48">
    <animate repeatCount="indefinite" begin="-0.7882882882882883s" dur="1.3513513513513513s" keyTimes="0;1" values="1;0" attributeName="opacity"></animate>
  </rect>
</g><g transform="rotate(150 50 50)">
  <rect fill="#7971fe" height="12" width="4" ry="2.2800000000000002" rx="2" y="24" x="48">
    <animate repeatCount="indefinite" begin="-0.6756756756756758s" dur="1.3513513513513513s" keyTimes="0;1" values="1;0" attributeName="opacity"></animate>
  </rect>
</g><g transform="rotate(180 50 50)">
  <rect fill="#7971fe" height="12" width="4" ry="2.2800000000000002" rx="2" y="24" x="48">
    <animate repeatCount="indefinite" begin="-0.5630630630630631s" dur="1.3513513513513513s" keyTimes="0;1" values="1;0" attributeName="opacity"></animate>
  </rect>
</g><g transform="rotate(210 50 50)">
  <rect fill="#7971fe" height="12" width="4" ry="2.2800000000000002" rx="2" y="24" x="48">
    <animate repeatCount="indefinite" begin="-0.4504504504504505s" dur="1.3513513513513513s" keyTimes="0;1" values="1;0" attributeName="opacity"></animate>
  </rect>
</g><g transform="rotate(240 50 50)">
  <rect fill="#7971fe" height="12" width="4" ry="2.2800000000000002" rx="2" y="24" x="48">
    <animate repeatCount="indefinite" begin="-0.3378378378378379s" dur="1.3513513513513513s" keyTimes="0;1" values="1;0" attributeName="opacity"></animate>
  </rect>
</g><g transform="rotate(270 50 50)">
  <rect fill="#7971fe" height="12" width="4" ry="2.2800000000000002" rx="2" y="24" x="48">
    <animate repeatCount="indefinite" begin="-0.22522522522522526s" dur="1.3513513513513513s" keyTimes="0;1" values="1;0" attributeName="opacity"></animate>
  </rect>
</g><g transform="rotate(300 50 50)">
  <rect fill="#7971fe" height="12" width="4" ry="2.2800000000000002" rx="2" y="24" x="48">
    <animate repeatCount="indefinite" begin="-0.11261261261261263s" dur="1.3513513513513513s" keyTimes="0;1" values="1;0" attributeName="opacity"></animate>
  </rect>
</g><g transform="rotate(330 50 50)">
  <rect fill="#7971fe" height="12" width="4" ry="2.2800000000000002" rx="2" y="24" x="48">
    <animate repeatCount="indefinite" begin="0s" dur="1.3513513513513513s" keyTimes="0;1" values="1;0" attributeName="opacity"></animate>
  </rect>
</g><g></g></g><!-- [ldio] generated by https://loading.io --></svg>