<svg width="80" height="29" viewBox="0 0 80 29" fill="none" xmlns="http://www.w3.org/2000/svg">
<path d="M0.953125 27.6415V2.77808H11.7732C13.8444 2.77808 15.612 3.11396 17.0761 3.78572C18.5491 4.4494 19.6695 5.3923 20.4373 6.61443C21.214 7.82846 21.6023 9.25697 21.6023 10.9C21.6023 12.5511 21.2095 13.9715 20.4239 15.1612C19.6383 16.3429 18.5 17.2494 17.0091 17.8807C15.5272 18.512 13.7328 18.8276 11.6259 18.8276H4.38127V14.6028H10.6885C11.7955 14.6028 12.715 14.4652 13.4471 14.19C14.1791 13.9148 14.7237 13.502 15.0808 12.9517C15.4468 12.4013 15.6298 11.7174 15.6298 10.9C15.6298 10.0744 15.4468 9.37838 15.0808 8.81183C14.7237 8.24528 14.1747 7.81632 13.4337 7.52495C12.7016 7.22549 11.7777 7.07576 10.6617 7.07576H6.7515V27.6415H0.953125ZM15.7638 16.3267L22.5799 27.6415H16.1789L9.51008 16.3267H15.7638Z" fill="#BE212A"/>
<path d="M29.2353 27.6415V2.77808H47.7151V7.11218H35.0337V13.0367H46.7643V17.3708H35.0337V23.3074H47.7687V27.6415H29.2353Z" fill="#BE212A"/>
<path d="M65.5823 27.6415H55.8603V2.77808H65.6626C68.4212 2.77808 70.7959 3.27583 72.7867 4.27134C74.7775 5.25875 76.3086 6.67917 77.3799 8.5326C78.4601 10.386 79.0002 12.6037 79.0002 15.1855C79.0002 17.7754 78.4601 20.0012 77.3799 21.8627C76.3086 23.7242 74.7686 25.1527 72.7599 26.1482C70.7602 27.1437 68.3676 27.6415 65.5823 27.6415ZM61.6586 23.1374H65.3412C67.0553 23.1374 68.4971 22.8622 69.6666 22.3119C70.845 21.7534 71.7288 20.8915 72.318 19.726C72.9162 18.5524 73.2152 17.0389 73.2152 15.1855C73.2152 13.3483 72.9162 11.8469 72.318 10.6814C71.7288 9.51597 70.8494 8.65805 69.68 8.10769C68.5105 7.55732 67.0687 7.28214 65.3546 7.28214H61.6586V23.1374Z" fill="#BE212A"/>
</svg>
