<svg width="80" height="20" viewBox="0 0 80 20" fill="none" xmlns="http://www.w3.org/2000/svg">
<path d="M16.8498 19.8907V0H25.508C27.1653 0 28.5798 0.268706 29.7513 0.806119C30.93 1.33706 31.8266 2.09138 32.4409 3.06908C33.0624 4.04031 33.3732 5.18312 33.3732 6.49751C33.3732 7.81838 33.0589 8.95472 32.4302 9.90652C31.8016 10.8518 30.8907 11.577 29.6977 12.0821C28.5119 12.5871 27.076 12.8396 25.3901 12.8396H19.593V9.45975H24.64C25.5258 9.45975 26.2616 9.34968 26.8474 9.12954C27.4332 8.90939 27.869 8.57917 28.1547 8.13889C28.4476 7.6986 28.594 7.15147 28.594 6.49751C28.594 5.83708 28.4476 5.28024 28.1547 4.827C27.869 4.37376 27.4296 4.03059 26.8367 3.7975C26.2509 3.55793 25.5115 3.43815 24.6186 3.43815H21.4896V19.8907H16.8498ZM28.7012 10.8389L34.1554 19.8907H29.0334L23.697 10.8389H28.7012Z" fill="#FF2130"/>
<path d="M39.4811 19.8907V0H54.2685V3.46728H44.1209V8.20687H53.5077V11.6742H44.1209V16.4235H54.3114V19.8907H39.4811Z" fill="#FF2130"/>
<path d="M68.5658 19.8907H60.7863V0H68.6301C70.8375 0 72.7377 0.398203 74.3307 1.19461C75.9238 1.98454 77.1489 3.12088 78.0062 4.60362C78.8706 6.08636 79.3028 7.86047 79.3028 9.92594C79.3028 11.9979 78.8706 13.7785 78.0062 15.2677C77.1489 16.7569 75.9166 17.8997 74.3093 18.6961C72.7091 19.4925 70.7946 19.8907 68.5658 19.8907ZM65.4261 16.2875H68.3729C69.7445 16.2875 70.8982 16.0673 71.834 15.627C72.777 15.1803 73.4842 14.4907 73.9557 13.5583C74.4343 12.6195 74.6736 11.4087 74.6736 9.92594C74.6736 8.45615 74.4343 7.25507 73.9557 6.32269C73.4842 5.39031 72.7806 4.70398 71.8447 4.26369C70.9089 3.8234 69.7552 3.60325 68.3836 3.60325H65.4261V16.2875Z" fill="#FF2130"/>
<path d="M2.92608 20C2.30726 20 1.79559 19.8835 1.39108 19.6504C0.986566 19.4148 0.702604 19.0822 0.539191 18.6524C0.378458 18.2202 0.351669 17.7115 0.458825 17.1264C0.563301 16.5509 0.776273 16.0459 1.09774 15.6113C1.41921 15.1742 1.82104 14.8343 2.30324 14.5915C2.78812 14.3462 3.3239 14.2236 3.91058 14.2236C4.29098 14.2236 4.64057 14.2795 4.95936 14.3912C5.27815 14.5004 5.54738 14.6704 5.76705 14.9011C5.98672 15.1317 6.13807 15.4255 6.22112 15.7824C6.30416 16.1369 6.30015 16.5594 6.20906 17.0499L6.14075 17.4542H1.07765L1.23436 16.5655H4.89909C4.94731 16.313 4.93123 16.0884 4.85087 15.8917C4.7705 15.6926 4.63655 15.536 4.44903 15.4219C4.26151 15.3078 4.02711 15.2507 3.74582 15.2507C3.45918 15.2507 3.19129 15.3175 2.94216 15.451C2.6957 15.5821 2.48808 15.7521 2.31931 15.9609C2.15054 16.1697 2.04339 16.3895 1.99785 16.6201L1.8331 17.4724C1.77416 17.822 1.78755 18.1073 1.87328 18.3283C1.959 18.5492 2.10902 18.7119 2.32333 18.8163C2.53764 18.9207 2.80821 18.9729 3.13504 18.9729C3.34935 18.9729 3.54759 18.9462 3.72975 18.8928C3.91191 18.8394 4.07399 18.7593 4.21597 18.6524C4.36063 18.5432 4.48118 18.4096 4.57762 18.2518L5.90769 18.3902C5.76035 18.7156 5.5447 18.9996 5.26074 19.2424C4.97677 19.4828 4.63655 19.6698 4.24008 19.8033C3.84628 19.9344 3.40828 20 2.92608 20Z" fill="#FF2130"/>
<path d="M10.8642 12.4317L9.49798 19.8907H8.04334L9.40958 12.4317H10.8642Z" fill="#FF2130"/>
</svg>
