<svg width="71" height="25" viewBox="0 0 71 25" fill="none" xmlns="http://www.w3.org/2000/svg">
<path d="M2.63281 23.8286V2.39459H11.9605C13.7459 2.39459 15.2698 2.68415 16.5319 3.26325C17.8018 3.83539 18.7676 4.64823 19.4295 5.70179C20.0991 6.74837 20.4338 7.97985 20.4338 9.39622C20.4338 10.8196 20.0952 12.0441 19.418 13.0697C18.7407 14.0884 17.7594 14.8698 16.4742 15.4141C15.1967 15.9583 13.6497 16.2304 11.8335 16.2304H5.58811V12.5883H11.0254C11.9797 12.5883 12.7724 12.4697 13.4035 12.2325C14.0345 11.9952 14.504 11.6394 14.8119 11.1649C15.1274 10.6905 15.2852 10.1009 15.2852 9.39622C15.2852 8.68455 15.1274 8.08451 14.8119 7.5961C14.504 7.1077 14.0307 6.7379 13.3919 6.48673C12.7608 6.22857 11.9643 6.09949 11.0023 6.09949H7.63141V23.8286H2.63281ZM15.4006 14.0744L21.2766 23.8286H15.7585L10.0095 14.0744H15.4006Z" fill="#BE212A"/>
<path d="M27.014 23.8286V2.39459H42.9449V6.13089H32.0126V11.2382H42.1252V14.9745H32.0126V20.0923H42.991V23.8286H27.014Z" fill="#BE212A"/>
<path d="M58.3476 23.8286H49.9666V2.39459H58.4169C60.7949 2.39459 62.8421 2.82369 64.5583 3.68189C66.2745 4.53311 67.5944 5.75761 68.518 7.35539C69.4492 8.95317 69.9148 10.8649 69.9148 13.0907C69.9148 15.3234 69.4492 17.2421 68.518 18.8469C67.5944 20.4516 66.2668 21.6831 64.5352 22.5413C62.8113 23.3995 60.7488 23.8286 58.3476 23.8286ZM54.9652 19.9458H58.1398C59.6174 19.9458 60.8604 19.7085 61.8685 19.2341C62.8844 18.7527 63.6463 18.0096 64.1543 17.0049C64.6699 15.9932 64.9277 14.6884 64.9277 13.0907C64.9277 11.5068 64.6699 10.2126 64.1543 9.20784C63.6463 8.20312 62.8883 7.46353 61.8801 6.98908C60.8719 6.51463 59.629 6.27741 58.1513 6.27741H54.9652V19.9458Z" fill="#BE212A"/>
</svg>
